<svg width="492" height="560" viewBox="0 0 492 560" fill="none" xmlns="http://www.w3.org/2000/svg">
<mask id="mask0_477_18428" style="mask-type:alpha" maskUnits="userSpaceOnUse" x="0" y="0" width="492" height="560">
<rect width="492" height="560" fill="#D9D9D9"/>
</mask>
<g mask="url(#mask0_477_18428)">
<g opacity="0.1">
<path d="M121.495 559.633C181.762 554.132 204.445 490.908 218.888 421.044C253.589 253.206 404.998 135.093 498.15 117.767C506.316 116.24 550.663 111.806 559.314 112.121C630.608 114.835 690.27 68.0163 692.572 7.55476C694.874 -52.931 638.968 -104.16 567.674 -106.898C496.381 -109.612 458.868 -57.6807 434.417 -2.33234C403.35 67.9921 379.723 92.4433 360.7 108.776C321.854 142.17 208.879 273.319 98.0129 302.326C39.4658 317.666 -5.87434 369.888 0.620125 440.915C7.09036 511.966 61.2271 565.11 121.495 559.609V559.633Z" fill="url(#paint0_linear_477_18428)"/>
<path fill-rule="evenodd" clip-rule="evenodd" d="M123.038 559.479C122.526 559.535 122.012 559.586 121.495 559.633V559.609C61.2271 565.11 7.09036 511.967 0.620125 440.916C-5.87434 369.888 39.4658 317.666 98.0129 302.327C186.93 279.062 277.204 190.095 329.503 138.553C342.413 125.83 353.009 115.388 360.7 108.777C379.723 92.4437 403.35 67.9926 434.417 -2.33186C458.868 -57.6802 496.381 -109.612 567.674 -106.898C569.304 -106.835 570.926 -106.747 572.539 -106.634C510.954 -101.983 477.076 -53.6248 454.417 -2.33186C423.35 67.9926 399.723 92.4437 380.7 108.777C373.009 115.388 362.413 125.83 349.503 138.553C297.204 190.095 206.93 279.062 118.013 302.327C59.4658 317.666 14.1257 369.888 20.6201 440.916C26.4212 504.618 70.5386 553.926 123.038 559.479Z" fill="url(#paint1_linear_477_18428)"/>
<path fill-rule="evenodd" clip-rule="evenodd" d="M103.002 559.479C109.058 560.119 115.226 560.178 121.459 559.609V559.633C181.727 554.132 204.409 490.908 218.852 421.044C253.554 253.206 404.962 135.093 498.114 117.767C506.281 116.24 550.627 111.805 559.278 112.121C630.572 114.835 690.234 68.0163 692.536 7.55476C694.838 -52.931 638.933 -104.16 567.639 -106.898C562.415 -107.097 557.373 -107.002 552.504 -106.635C621.458 -101.813 674.786 -51.5483 672.536 7.55476C670.234 68.0163 610.572 114.835 539.278 112.121C530.627 111.805 486.281 116.24 478.114 117.767C384.962 135.093 233.554 253.206 198.852 421.044C184.533 490.309 162.116 553.047 103.002 559.479Z" fill="url(#paint2_linear_477_18428)"/>
</g>
<g opacity="0.1">
<path d="M349.507 541.763C388.451 538.208 403.107 497.354 412.44 452.21C434.863 343.756 532.7 267.435 592.893 256.239C598.17 255.253 626.825 252.387 632.416 252.591C678.484 254.344 717.036 224.091 718.524 185.023C720.011 145.938 683.886 112.835 637.818 111.066C591.75 109.312 567.51 142.869 551.71 178.634C531.635 224.076 516.368 239.876 504.076 250.43C478.974 272.008 405.973 356.753 334.334 375.497C296.502 385.409 267.204 419.154 271.401 465.05C275.582 510.962 310.564 545.302 349.507 541.747V541.763Z" fill="url(#paint3_linear_477_18428)"/>
<path fill-rule="evenodd" clip-rule="evenodd" d="M350.504 541.663C350.173 541.699 349.841 541.732 349.507 541.763V541.747C310.564 545.302 275.582 510.962 271.401 465.05C267.204 419.154 296.502 385.409 334.334 375.497C391.79 360.464 450.123 302.976 483.917 269.67C492.259 261.449 499.106 254.702 504.076 250.43C516.368 239.876 531.635 224.076 551.71 178.634C567.51 142.869 591.75 109.312 637.818 111.066C638.871 111.106 639.919 111.163 640.961 111.236C601.166 114.241 579.276 145.489 564.633 178.634C544.559 224.076 529.291 239.876 516.999 250.43C512.03 254.702 505.183 261.449 496.841 269.671C463.046 302.976 404.714 360.464 347.257 375.497C309.425 385.409 280.128 419.154 284.324 465.05C288.073 506.213 316.58 538.074 350.504 541.663Z" fill="url(#paint4_linear_477_18428)"/>
<path fill-rule="evenodd" clip-rule="evenodd" d="M337.559 541.663C341.472 542.077 345.457 542.115 349.485 541.747V541.763C388.429 538.208 403.085 497.354 412.418 452.21C434.842 343.756 532.678 267.435 592.871 256.239C598.148 255.253 626.804 252.387 632.394 252.591C678.462 254.344 717.014 224.091 718.502 185.023C719.989 145.938 683.864 112.835 637.796 111.066C634.421 110.937 631.162 110.998 628.016 111.236C672.573 114.352 707.032 146.832 705.578 185.023C704.091 224.091 665.539 254.344 619.47 252.591C613.88 252.387 585.224 255.253 579.947 256.239C519.755 267.435 421.918 343.756 399.495 452.21C390.242 496.967 375.756 537.507 337.559 541.663Z" fill="url(#paint5_linear_477_18428)"/>
</g>
</g>
<defs>
<linearGradient id="paint0_linear_477_18428" x1="406.499" y1="-110.376" x2="226.649" y2="859.155" gradientUnits="userSpaceOnUse">
<stop stop-color="#00E5FF"/>
<stop offset="1" stop-color="#4676E0"/>
</linearGradient>
<linearGradient id="paint1_linear_477_18428" x1="406.498" y1="-110.375" x2="226.649" y2="859.154" gradientUnits="userSpaceOnUse">
<stop stop-color="#4676E0"/>
<stop offset="0.078125" stop-color="#00E5FF"/>
</linearGradient>
<linearGradient id="paint2_linear_477_18428" x1="406.464" y1="-110.376" x2="226.614" y2="859.154" gradientUnits="userSpaceOnUse">
<stop offset="0.536458" stop-color="#4676E0"/>
<stop offset="1" stop-color="#00E5FF"/>
</linearGradient>
<linearGradient id="paint3_linear_477_18428" x1="533.67" y1="108.819" x2="417.455" y2="735.307" gradientUnits="userSpaceOnUse">
<stop stop-color="#00E5FF"/>
<stop offset="1" stop-color="#4676E0"/>
</linearGradient>
<linearGradient id="paint4_linear_477_18428" x1="533.67" y1="108.819" x2="417.455" y2="735.306" gradientUnits="userSpaceOnUse">
<stop stop-color="#4676E0"/>
<stop offset="0.078125" stop-color="#00E5FF"/>
</linearGradient>
<linearGradient id="paint5_linear_477_18428" x1="533.649" y1="108.819" x2="417.434" y2="735.306" gradientUnits="userSpaceOnUse">
<stop offset="0.536458" stop-color="#4676E0"/>
<stop offset="1" stop-color="#00E5FF"/>
</linearGradient>
</defs>
</svg>
