<svg width="225" height="348" viewBox="0 0 225 348" fill="none" xmlns="http://www.w3.org/2000/svg">
<mask id="mask0_477_18517" style="mask-type:alpha" maskUnits="userSpaceOnUse" x="0" y="0" width="225" height="348">
<rect width="225" height="348" fill="#D9D9D9"/>
</mask>
<g mask="url(#mask0_477_18517)">
<g opacity="0.1">
<path d="M63.3316 347.496C94.7473 344.628 106.571 311.671 114.099 275.253C132.188 187.764 211.113 126.196 259.67 117.164C263.927 116.368 287.044 114.057 291.554 114.221C328.717 115.636 359.817 91.2308 361.017 59.714C362.217 28.1845 333.075 1.48053 295.912 0.0531177C258.748 -1.36166 239.194 25.7087 226.448 54.5601C210.254 91.2181 197.938 103.964 188.022 112.478C167.773 129.885 108.882 198.249 51.0912 213.369C20.5723 221.365 -3.06212 248.587 0.323253 285.612C3.69599 322.649 31.9158 350.351 63.3316 347.483V347.496Z" fill="url(#paint0_linear_477_18517)"/>
<path fill-rule="evenodd" clip-rule="evenodd" d="M298.447 0.190612C266.345 2.61514 248.685 27.8229 236.874 54.5603C220.679 91.2183 208.363 103.964 198.447 112.478C194.438 115.924 188.915 121.367 182.186 127.999C154.924 154.867 107.867 201.243 61.5165 213.37C30.9976 221.366 7.36317 248.588 10.7485 285.612C13.7725 318.818 36.7697 344.521 64.1359 347.416C63.8692 347.445 63.6011 347.471 63.3316 347.496V347.483C31.9158 350.351 3.69599 322.649 0.323253 285.612C-3.06212 248.588 20.5723 221.366 51.0912 213.37C97.4412 201.243 144.498 154.867 171.76 128C178.49 121.368 184.013 115.924 188.022 112.478C197.938 103.964 210.254 91.2184 226.448 54.5604C239.194 25.7089 258.748 -1.36142 295.912 0.0533618C296.761 0.0859879 297.606 0.13182 298.447 0.190612Z" fill="url(#paint1_linear_477_18517)"/>
<path fill-rule="evenodd" clip-rule="evenodd" d="M53.6919 347.415C56.8488 347.749 60.0639 347.78 63.3131 347.483V347.496C94.7288 344.628 106.552 311.671 114.081 275.253C132.17 187.764 211.095 126.196 259.652 117.164C263.909 116.368 287.025 114.057 291.535 114.221C328.698 115.636 359.798 91.2308 360.998 59.714C362.198 28.1845 333.056 1.48053 295.893 0.0531178C293.17 -0.0505427 290.542 -0.00128312 288.004 0.190393C323.948 2.70396 351.746 28.9053 350.573 59.714C349.373 91.2308 318.273 115.636 281.11 114.221C276.6 114.057 253.484 116.368 249.227 117.164C200.669 126.196 121.745 187.764 103.656 275.253C96.1916 311.359 84.5061 344.063 53.6919 347.415Z" fill="url(#paint2_linear_477_18517)"/>
</g>
<g opacity="0.1">
<path d="M182.188 338.181C202.488 336.328 210.128 315.032 214.993 291.499C226.681 234.966 277.681 195.182 309.057 189.346C311.808 188.831 326.745 187.338 329.659 187.444C353.673 188.358 373.769 172.588 374.545 152.223C375.32 131.849 356.489 114.594 332.475 113.671C308.461 112.757 295.826 130.249 287.59 148.892C277.125 172.58 269.167 180.816 262.759 186.317C249.675 197.565 211.621 241.741 174.278 251.511C154.558 256.678 139.285 274.268 141.473 298.193C143.652 322.125 161.887 340.025 182.188 338.172V338.181Z" fill="url(#paint3_linear_477_18517)"/>
<path fill-rule="evenodd" clip-rule="evenodd" d="M334.114 113.76C313.37 115.327 301.959 131.615 294.327 148.892C283.862 172.58 275.904 180.816 269.496 186.317C266.906 188.544 263.337 192.062 258.989 196.347C241.373 213.708 210.965 243.675 181.015 251.511C161.295 256.678 146.022 274.268 148.21 298.192C150.164 319.65 165.024 336.258 182.708 338.129C182.535 338.147 182.362 338.165 182.188 338.181V338.172C161.887 340.025 143.652 322.125 141.473 298.193C139.285 274.268 154.558 256.678 174.278 251.511C204.228 243.675 234.636 213.708 252.252 196.347C256.6 192.062 260.169 188.544 262.759 186.317C269.167 180.816 277.125 172.58 287.59 148.892C295.826 130.249 308.461 112.757 332.475 113.671C333.024 113.692 333.57 113.722 334.114 113.76Z" fill="url(#paint4_linear_477_18517)"/>
<path fill-rule="evenodd" clip-rule="evenodd" d="M175.959 338.129C177.999 338.344 180.076 338.364 182.176 338.172V338.181C202.476 336.328 210.116 315.032 214.981 291.499C226.67 234.966 277.669 195.182 309.045 189.346C311.796 188.831 326.734 187.338 329.648 187.444C353.662 188.358 373.758 172.588 374.533 152.223C375.309 131.849 356.478 114.594 332.464 113.671C330.704 113.604 329.006 113.636 327.366 113.76C350.592 115.384 368.554 132.315 367.797 152.223C367.021 172.588 346.925 188.358 322.911 187.444C319.997 187.338 305.06 188.831 302.309 189.346C270.932 195.182 219.933 234.966 208.245 291.499C203.421 314.83 195.87 335.962 175.959 338.129Z" fill="url(#paint5_linear_477_18517)"/>
</g>
</g>
<defs>
<linearGradient id="paint0_linear_477_18517" x1="211.896" y1="-1.75958" x2="118.145" y2="503.627" gradientUnits="userSpaceOnUse">
<stop stop-color="#00E5FF"/>
<stop offset="1" stop-color="#4676E0"/>
</linearGradient>
<linearGradient id="paint1_linear_477_18517" x1="211.895" y1="-1.75933" x2="118.145" y2="503.627" gradientUnits="userSpaceOnUse">
<stop stop-color="#4676E0"/>
<stop offset="0.078125" stop-color="#00E5FF"/>
</linearGradient>
<linearGradient id="paint2_linear_477_18517" x1="211.878" y1="-1.75958" x2="118.127" y2="503.627" gradientUnits="userSpaceOnUse">
<stop offset="0.536458" stop-color="#4676E0"/>
<stop offset="1" stop-color="#00E5FF"/>
</linearGradient>
<linearGradient id="paint3_linear_477_18517" x1="278.186" y1="112.5" x2="217.607" y2="439.069" gradientUnits="userSpaceOnUse">
<stop stop-color="#00E5FF"/>
<stop offset="1" stop-color="#4676E0"/>
</linearGradient>
<linearGradient id="paint4_linear_477_18517" x1="278.186" y1="112.5" x2="217.606" y2="439.069" gradientUnits="userSpaceOnUse">
<stop stop-color="#4676E0"/>
<stop offset="0.078125" stop-color="#00E5FF"/>
</linearGradient>
<linearGradient id="paint5_linear_477_18517" x1="278.175" y1="112.5" x2="217.596" y2="439.069" gradientUnits="userSpaceOnUse">
<stop offset="0.536458" stop-color="#4676E0"/>
<stop offset="1" stop-color="#00E5FF"/>
</linearGradient>
</defs>
</svg>
