<svg width="32" height="32" viewBox="0 0 32 32" fill="none" xmlns="http://www.w3.org/2000/svg">
<circle opacity="0.2" cx="16" cy="16" r="16" fill="url(#paint0_linear_407_22408)"/>
<path d="M23.12 19.0044C22.0267 19.0044 20.9689 18.8267 19.9822 18.5067C19.6711 18.4 19.3244 18.48 19.0844 18.72L17.6889 20.4711C15.1733 19.2711 12.8178 17.0044 11.5644 14.4L13.2978 12.9244C13.5378 12.6756 13.6089 12.3289 13.5111 12.0178C13.1822 11.0311 13.0133 9.97333 13.0133 8.88C13.0133 8.4 12.6133 8 12.1333 8H9.05778C8.57778 8 8 8.21333 8 8.88C8 17.1378 14.8711 24 23.12 24C23.7511 24 24 23.44 24 22.9511V19.8844C24 19.4044 23.6 19.0044 23.12 19.0044Z" fill="#01010B"/>
<defs>
<linearGradient id="paint0_linear_407_22408" x1="1.62942" y1="9.14285" x2="17.6338" y2="10.3506" gradientUnits="userSpaceOnUse">
<stop stop-color="#5870EC"/>
<stop offset="1" stop-color="#08D9FB"/>
</linearGradient>
</defs>
</svg>
