<svg width="32" height="32" viewBox="0 0 32 32" fill="none" xmlns="http://www.w3.org/2000/svg">
<circle opacity="0.2" cx="16" cy="16" r="16" fill="url(#paint0_linear_407_22450)"/>
<g clip-path="url(#clip0_407_22450)">
<path d="M15.665 6.77734C11.9322 6.77734 8.55499 9.63912 8.55499 14.0651C8.55499 17.0157 10.928 20.5085 15.665 24.5523C20.402 20.5085 22.775 17.0157 22.775 14.0651C22.775 9.63912 19.3977 6.77734 15.665 6.77734ZM15.665 15.6648C14.6874 15.6648 13.8875 14.865 13.8875 13.8873C13.8875 12.9097 14.6874 12.1098 15.665 12.1098C16.6426 12.1098 17.4425 12.9097 17.4425 13.8873C17.4425 14.865 16.6426 15.6648 15.665 15.6648Z" fill="black"/>
</g>
<defs>
<linearGradient id="paint0_linear_407_22450" x1="1.62942" y1="9.14285" x2="17.6338" y2="10.3506" gradientUnits="userSpaceOnUse">
<stop stop-color="#5870EC"/>
<stop offset="1" stop-color="#08D9FB"/>
</linearGradient>
<clipPath id="clip0_407_22450">
<rect width="21.33" height="21.33" fill="white" transform="translate(5 5)"/>
</clipPath>
</defs>
</svg>
