<svg width="360" height="335" viewBox="0 0 360 335" fill="none" xmlns="http://www.w3.org/2000/svg">
<mask id="mask0_477_16073" style="mask-type:alpha" maskUnits="userSpaceOnUse" x="0" y="0" width="360" height="335">
<rect width="360" height="335" fill="#D7F2FF"/>
</mask>
<g mask="url(#mask0_477_16073)">
<rect x="22.9492" y="15" width="21.8983" height="21.8983" rx="0.610183" fill="#53BEED" fill-opacity="0.3"/>
<rect x="302.76" y="24.7327" width="19.4651" height="19.4651" rx="1.22037" fill="#53BEED" fill-opacity="0.3"/>
<rect width="9.73256" height="9.73256" rx="1.22037" transform="matrix(-1 0 0 1 300.327 46.6306)" fill="#53BEED" fill-opacity="0.3"/>
<rect x="315.534" y="297.853" width="21.29" height="21.29" rx="1.83055" fill="#53BEED" fill-opacity="0.3"/>
<rect x="305.193" y="285.687" width="9.12428" height="9.12428" rx="1.83055" fill="#53BEED" fill-opacity="0.3"/>
<rect x="29.6401" y="297.853" width="20.0734" height="20.0734" rx="1.22037" fill="#53BEED" fill-opacity="0.3"/>
<rect x="124.533" y="297.853" width="15.2071" height="15.2071" rx="1.22037" fill="#53BEED" fill-opacity="0.3"/>
<rect x="51.5386" y="284.47" width="11.5574" height="11.5574" rx="1.22037" fill="#53BEED" fill-opacity="0.3"/>
<rect x="27.8154" y="148.214" width="9.73256" height="9.73256" rx="1.22037" fill="#53BEED" fill-opacity="0.3"/>
<rect x="159.813" y="41.1562" width="15.2071" height="15.2071" rx="1.22037" fill="#53BEED" fill-opacity="0.3"/>
<rect x="277.821" y="209.651" width="8.51599" height="8.51599" rx="1.22037" fill="#53BEED" fill-opacity="0.3"/>
<rect x="325.875" y="146.39" width="8.51599" height="8.51599" rx="1.22037" fill="#53BEED" fill-opacity="0.3"/>
</g>
</svg>
