<?xml version="1.0" encoding="UTF-8"?><svg id="Trading_Rooms_full_logo" xmlns="http://www.w3.org/2000/svg" viewBox="0 0 2888.12 386"><defs><style>.cls-1{fill:#2236aa;}.cls-2{fill:#24dc8e;}</style></defs><g><path class="cls-1" d="M487.41,299.27V97.59h-77.19V54.4h200.66v43.19h-77.19v201.68h-46.27Z"/><path class="cls-1" d="M607.44,299.27V115.63h40.81v44.89l-4.43-5.78c2.38-6.35,5.56-12.13,9.53-17.34s8.83-9.51,14.61-12.91c4.43-2.73,9.24-4.83,14.45-6.37,5.21-1.54,10.59-2.48,16.15-2.89,5.54-.41,11.1-.27,16.67,.43v43.19c-5.1-1.59-11.02-2.11-17.77-1.62-6.75,.51-12.83,2.08-18.29,4.67-5.46,2.48-10.02,5.81-13.78,9.94s-6.59,9.02-8.51,14.61c-1.92,5.62-2.89,11.94-2.89,18.96v93.86h-46.57Z"/><path class="cls-1" d="M781.57,304.38c-13.15,0-24.28-2.54-33.41-7.56-9.13-5.05-16.04-11.8-20.74-20.23-4.7-8.45-7.05-17.77-7.05-27.98,0-8.51,1.3-16.26,3.92-23.31,2.59-7.02,6.83-13.23,12.67-18.61,5.83-5.37,13.69-9.89,23.55-13.53,6.81-2.48,14.91-4.7,24.31-6.64,9.4-1.92,20.07-3.78,31.98-5.54,11.91-1.76,24.98-3.7,39.27-5.86l-16.67,9.18c0-10.88-2.62-18.88-7.83-23.98-5.21-5.1-13.94-7.64-26.17-7.64-6.81,0-13.88,1.65-21.26,4.92-7.37,3.3-12.53,9.13-15.48,17.53l-41.84-13.26c4.65-15.18,13.37-27.55,26.17-37.08,12.8-9.51,30.28-14.29,52.37-14.29,16.21,0,30.6,2.48,43.19,7.48,12.59,5,22.09,13.61,28.58,25.85,3.62,6.81,5.78,13.61,6.46,20.39,.68,6.81,1.03,14.4,1.03,22.8v112.23h-40.46v-37.76l5.78,7.81c-8.97,12.37-18.61,21.28-29.01,26.79-10.37,5.51-23.5,8.27-39.38,8.27l.03,.05Zm9.86-36.41c8.51,0,15.67-1.49,21.5-4.51,5.83-3,10.48-6.43,13.94-10.29s5.81-7.08,7.05-9.7c2.38-5,3.78-10.8,4.16-17.42,.38-6.64,.59-12.15,.59-16.58l13.61,3.4c-13.72,2.27-24.82,4.16-33.33,5.7s-15.37,2.92-20.58,4.16c-5.21,1.24-9.8,2.62-13.78,4.08-4.54,1.81-8.18,3.78-10.97,5.86-2.78,2.11-4.81,4.4-6.13,6.89-1.3,2.48-1.94,5.27-1.94,8.32,0,4.19,1.05,7.81,3.16,10.8s5.08,5.29,8.94,6.89c3.86,1.59,8.45,2.38,13.78,2.38v.03Z"/><path class="cls-1" d="M989.71,304.38c-16.88,0-31.68-4.24-44.38-12.75-12.69-8.51-22.58-20.07-29.68-34.68-7.08-14.61-10.61-31.12-10.61-49.48s3.59-35.36,10.8-49.91c7.18-14.56,17.31-26.04,30.36-34.44,13.05-8.4,28.33-12.59,45.92-12.59s32.14,4.24,44.05,12.75c11.91,8.51,20.93,20.07,27.04,34.68,6.13,14.61,9.18,31.12,9.18,49.48s-3.11,34.84-9.26,49.48c-6.19,14.61-15.4,26.2-27.63,34.68-12.24,8.51-27.5,12.75-45.75,12.75l-.03,.03Zm7.48-41.16c10.32,0,18.56-2.32,24.74-6.97,6.19-4.65,10.61-11.18,13.34-19.56,2.73-8.37,4.08-18.12,4.08-29.25s-1.35-20.85-4.08-29.25c-2.73-8.4-7.05-14.91-13.02-19.56-5.94-4.65-13.75-6.97-23.39-6.97-10.32,0-18.77,2.54-25.42,7.56-6.64,5.05-11.53,11.8-14.72,20.23-3.19,8.45-4.75,17.77-4.75,27.98s1.54,19.69,4.59,28.14c3.05,8.45,7.75,15.15,14.1,20.15,6.35,5,14.5,7.48,24.5,7.48h.03Zm42.16,36.06v-125.84h-5.78V54.4h46.59v244.87h-40.81Z"/><path class="cls-1" d="M1117.6,90.11V49.3h46.24v40.81h-46.24Zm0,209.16V115.63h46.24v183.67h-46.24v-.03Z"/><path class="cls-1" d="M1200.93,299.27V115.63h41.14v60.88h5.78v122.79h-46.92v-.03Zm125.49,0v-86.73c0-4.19-.24-9.56-.68-16.07-.46-6.51-1.86-13.07-4.24-19.64-2.38-6.56-6.27-12.07-11.64-16.5s-12.99-6.64-22.88-6.64c-3.97,0-8.21,.62-12.75,1.86s-8.78,3.65-12.75,7.21-7.24,8.81-9.78,15.72c-2.54,6.91-3.84,16.1-3.84,27.55l-26.52-12.59c0-14.5,2.94-28.12,8.83-40.81,5.89-12.69,14.77-22.96,26.6-30.76,11.86-7.83,26.79-11.75,44.81-11.75,14.4,0,26.15,2.43,35.19,7.32,9.08,4.86,16.12,11.05,21.18,18.53,5.05,7.48,8.64,15.29,10.8,23.39,2.16,8.1,3.46,15.5,3.92,22.2s.68,11.56,.68,14.61v103.04h-46.94v.05Z"/><path class="cls-1" d="M1478.45,304.38c-16.88,0-31.68-4.24-44.38-12.75s-22.58-20.07-29.68-34.68c-7.08-14.61-10.61-31.12-10.61-49.48s3.59-35.36,10.8-49.91c7.18-14.56,17.31-26.04,30.36-34.44,13.05-8.4,28.33-12.59,45.92-12.59s32.14,4.24,44.05,12.75c11.91,8.51,20.93,20.07,27.04,34.68,6.13,14.61,9.18,31.12,9.18,49.48s-3.11,34.84-9.26,49.48c-6.19,14.61-15.4,26.2-27.63,34.68-12.24,8.51-27.5,12.75-45.75,12.75l-.03,.03Zm4.08,81.62c-10.43,0-20.34-1.67-29.76-5.02-9.4-3.35-17.83-7.99-25.25-13.94s-13.48-12.88-18.1-20.82l42.86-20.74c2.94,5.46,7.16,9.59,12.67,12.42,5.51,2.84,11.48,4.24,17.93,4.24,6.91,0,13.42-1.16,19.56-3.48,6.13-2.32,11.02-5.78,14.72-10.37,3.67-4.59,5.4-10.29,5.19-17.1v-53.4h5.78V115.63h40.46v196.23c0,4.54-.19,8.81-.59,12.86-.41,4.02-1.11,8.02-2.13,11.99-2.94,11.24-8.43,20.47-16.42,27.71-7.99,7.24-17.77,12.67-29.33,16.23-11.56,3.57-24.09,5.35-37.57,5.35h0Zm3.4-122.79c10.32,0,18.56-2.32,24.74-6.97,6.19-4.65,10.61-11.18,13.34-19.56,2.73-8.37,4.08-18.12,4.08-29.25s-1.35-20.85-4.08-29.25c-2.73-8.4-7.05-14.91-13.02-19.56-5.94-4.65-13.75-6.97-23.39-6.97-10.32,0-18.77,2.54-25.42,7.56-6.64,5.05-11.53,11.8-14.72,20.23-3.19,8.45-4.75,17.77-4.75,27.98s1.54,19.69,4.59,28.14c3.05,8.45,7.75,15.15,14.1,20.15,6.35,5,14.5,7.48,24.5,7.48h.03Z"/></g><g><rect class="cls-1" x="0" width="207.61" height="103.81"/><path class="cls-2" d="M207.61,363.32C93.14,363.32,0,270.19,0,155.71H103.81c0,57.25,46.58,103.81,103.81,103.81v103.81Z"/></g><g><path class="cls-2" d="M1603.56,298.81V53.94h46.24V255.62h105.45v43.19h-151.69Z"/><path class="cls-2" d="M1855.92,303.92c-18.83,0-35.41-4.05-49.73-12.15-14.34-8.1-25.58-19.26-33.68-33.49-8.1-14.23-12.15-30.52-12.15-48.89,0-20.07,3.97-37.52,11.91-52.37,7.94-14.86,18.88-26.39,32.82-34.6,13.94-8.21,29.98-12.32,48.13-12.32,19.29,0,35.65,4.54,49.16,13.61,13.48,9.08,23.47,21.82,29.93,38.27,6.46,16.45,8.72,35.76,6.81,57.99h-45.75v-17.02c0-18.72-2.97-32.17-8.94-40.38-5.94-8.21-15.67-12.32-29.17-12.32-15.77,0-27.36,4.78-34.79,14.37-7.43,9.59-11.13,23.71-11.13,42.43,0,17.12,3.7,30.36,11.13,39.7,7.43,9.35,18.34,14.02,32.74,14.02,9.08,0,16.83-1.97,23.31-5.94,6.46-3.97,11.4-9.7,14.8-17.18l46.24,13.26c-6.91,16.77-17.83,29.82-32.74,39.11-14.91,9.29-31.2,13.94-48.89,13.94v-.05Zm-60.88-84v-34.36h121.76v34.36h-121.76Z"/><path class="cls-2" d="M2011.36,303.92c-13.15,0-24.28-2.54-33.41-7.56-9.13-5.05-16.04-11.8-20.74-20.23-4.7-8.45-7.05-17.77-7.05-27.98,0-8.51,1.3-16.26,3.92-23.28,2.59-7.02,6.83-13.23,12.67-18.61,5.83-5.37,13.69-9.89,23.55-13.53,6.81-2.48,14.91-4.7,24.31-6.64,9.4-1.92,20.07-3.78,31.98-5.54,11.91-1.76,24.98-3.7,39.27-5.86l-16.67,9.18c0-10.88-2.62-18.88-7.83-23.98-5.21-5.1-13.94-7.64-26.17-7.64-6.81,0-13.88,1.65-21.26,4.94-7.37,3.3-12.53,9.13-15.48,17.5l-41.84-13.26c4.65-15.18,13.37-27.55,26.17-37.08,12.8-9.51,30.28-14.29,52.37-14.29,16.21,0,30.6,2.48,43.19,7.48,12.59,5,22.09,13.61,28.58,25.85,3.62,6.81,5.78,13.61,6.46,20.39,.68,6.81,1.03,14.4,1.03,22.8v112.23h-40.46v-37.76l5.78,7.83c-8.97,12.34-18.61,21.28-29.01,26.79-10.37,5.51-23.5,8.24-39.38,8.24l.03,.03Zm9.86-36.38c8.51,0,15.67-1.51,21.5-4.51,5.83-3,10.48-6.43,13.94-10.29,3.46-3.86,5.81-7.08,7.05-9.7,2.38-5,3.78-10.8,4.16-17.42,.38-6.64,.59-12.15,.59-16.58l13.61,3.4c-13.72,2.27-24.82,4.16-33.33,5.7s-15.37,2.92-20.58,4.16c-5.21,1.24-9.8,2.62-13.77,4.08-4.54,1.81-8.18,3.78-10.97,5.86-2.78,2.11-4.81,4.4-6.13,6.89-1.3,2.48-1.94,5.27-1.94,8.35,0,4.19,1.05,7.81,3.16,10.8,2.11,3,5.08,5.29,8.94,6.89,3.86,1.59,8.45,2.38,13.77,2.38h0Z"/><path class="cls-2" d="M2219.5,303.92c-16.88,0-31.68-4.24-44.38-12.75s-22.58-20.07-29.68-34.68c-7.08-14.61-10.61-31.12-10.61-49.48s3.59-35.33,10.8-49.91c7.18-14.56,17.31-26.04,30.36-34.44,13.05-8.4,28.33-12.59,45.92-12.59s32.14,4.24,44.05,12.75c11.91,8.51,20.93,20.07,27.04,34.68,6.13,14.61,9.18,31.12,9.18,49.48s-3.11,34.87-9.26,49.48c-6.19,14.61-15.4,26.17-27.63,34.68-12.24,8.51-27.5,12.75-45.75,12.75l-.03,.03Zm4.08,81.62c-10.43,0-20.34-1.67-29.76-5.02-9.4-3.35-17.83-7.99-25.25-13.94-7.43-5.94-13.48-12.88-18.1-20.82l42.86-20.74c2.94,5.46,7.16,9.59,12.67,12.42,5.51,2.84,11.48,4.24,17.93,4.24,6.91,0,13.42-1.16,19.56-3.48s11.02-5.78,14.72-10.37c3.67-4.59,5.4-10.29,5.19-17.1v-53.4h5.78V115.17h40.46v196.23c0,4.54-.19,8.81-.59,12.83-.41,4.02-1.11,8.02-2.13,11.99-2.94,11.24-8.43,20.47-16.42,27.71-7.99,7.24-17.77,12.67-29.33,16.23-11.56,3.57-24.09,5.35-37.57,5.35v.03Zm3.4-122.79c10.32,0,18.56-2.32,24.74-6.97s10.61-11.16,13.34-19.56c2.73-8.4,4.08-18.12,4.08-29.25s-1.35-20.85-4.08-29.25c-2.73-8.4-7.05-14.91-13.02-19.56-5.94-4.65-13.75-6.97-23.39-6.97-10.32,0-18.77,2.54-25.42,7.56-6.64,5.05-11.53,11.8-14.72,20.23-3.19,8.45-4.75,17.77-4.75,27.98s1.54,19.69,4.59,28.14c3.05,8.45,7.75,15.15,14.1,20.15s14.5,7.48,24.5,7.48h.03Z"/><path class="cls-2" d="M2411.99,304.27c-14.4,0-26.15-2.43-35.19-7.32-9.08-4.86-16.12-11.05-21.18-18.53-5.05-7.48-8.64-15.29-10.8-23.39-2.16-8.1-3.46-15.5-3.92-22.2-.46-6.7-.68-11.56-.68-14.61V115.17h46.94v86.73c0,4.19,.22,9.56,.68,16.07,.46,6.51,1.86,13.07,4.24,19.64,2.38,6.59,6.27,12.07,11.64,16.5,5.4,4.43,13.02,6.62,22.88,6.62,3.97,0,8.21-.62,12.75-1.86s8.78-3.65,12.75-7.24c3.97-3.57,7.24-8.83,9.78-15.83,2.54-6.97,3.84-16.12,3.84-27.47l26.52,12.59c0,14.5-2.94,28.12-8.83,40.81-5.89,12.69-14.77,22.96-26.6,30.79-11.86,7.83-26.79,11.72-44.81,11.72v.03Zm59.53-5.46v-60.88h-5.78V115.15h46.59v183.67h-40.81Z"/><path class="cls-2" d="M2631.69,303.92c-18.83,0-35.41-4.05-49.73-12.15-14.34-8.1-25.58-19.26-33.68-33.49-8.1-14.23-12.15-30.52-12.15-48.89,0-20.07,3.97-37.52,11.91-52.37,7.94-14.86,18.88-26.39,32.82-34.6,13.94-8.21,29.98-12.32,48.13-12.32,19.29,0,35.65,4.54,49.16,13.61,13.48,9.08,23.47,21.82,29.93,38.27,6.46,16.45,8.72,35.76,6.81,57.99h-45.75v-17.02c0-18.72-2.97-32.17-8.94-40.38-5.94-8.21-15.67-12.32-29.17-12.32-15.77,0-27.36,4.78-34.79,14.37-7.43,9.59-11.13,23.71-11.13,42.43,0,17.12,3.7,30.36,11.13,39.7,7.43,9.35,18.34,14.02,32.74,14.02,9.08,0,16.83-1.97,23.31-5.94,6.46-3.97,11.4-9.7,14.8-17.18l46.24,13.26c-6.91,16.77-17.83,29.82-32.74,39.11-14.91,9.29-31.2,13.94-48.89,13.94v-.05Zm-60.88-84v-34.36h121.76v34.36h-121.76Z"/><path class="cls-2" d="M2811.25,303.92c-23.12,0-41.81-5.24-56.05-15.72-14.23-10.48-22.88-25.31-25.93-44.46l47.27-7.13c1.92,8.62,6.21,15.37,12.83,20.23,6.64,4.89,15.04,7.32,25.25,7.32,8.37,0,14.86-1.62,19.39-4.83,4.54-3.24,6.81-7.72,6.81-13.53,0-3.62-.92-6.54-2.73-8.75s-5.86-4.4-12.15-6.54c-6.29-2.16-16.07-5-29.33-8.51-14.96-3.86-26.93-8.16-35.87-12.91-8.97-4.75-15.42-10.45-19.39-17.1-3.97-6.62-5.94-14.64-5.94-24.07,0-11.8,3-22.01,8.99-30.68,6.02-8.67,14.48-15.37,25.42-20.07,10.94-4.7,23.85-7.05,38.68-7.05s27.15,2.21,38.27,6.64c11.1,4.43,20.1,10.72,26.96,18.88,6.86,8.16,11.07,17.8,12.67,28.9l-47.27,8.51c-.81-6.81-3.75-12.18-8.83-16.15-5.1-3.97-12.02-6.29-20.74-6.97-8.51-.57-15.34,.57-20.5,3.4-5.16,2.84-7.72,6.91-7.72,12.24,0,3.19,1.11,5.83,3.32,7.99,2.21,2.16,6.81,4.38,13.77,6.62,6.97,2.27,17.61,5.21,31.9,8.83,13.94,3.62,25.15,7.86,33.57,12.67,8.45,4.81,14.61,10.61,18.45,17.34,3.86,6.75,5.78,14.88,5.78,24.42,0,18.83-6.81,33.6-20.39,44.38-13.61,10.78-32.44,16.15-56.45,16.15l-.03-.05Z"/></g></svg>