<svg width="16" height="16" viewBox="0 0 16 16" fill="none" xmlns="http://www.w3.org/2000/svg">
<g clip-path="url(#clip0_478_10706)">
<path d="M15.9844 4.70404C15.9469 3.8539 15.8094 3.26944 15.6125 2.76299C15.4093 2.22541 15.0967 1.74412 14.6872 1.34401C14.2871 0.937683 13.8027 0.621948 13.2713 0.421957C12.7619 0.22502 12.1805 0.0875415 11.3304 0.0500586C10.4739 0.00940124 10.202 0 8.02969 0C5.85739 0 5.58549 0.00940124 4.73218 0.0468842C3.88203 0.0843671 3.29757 0.221967 2.79125 0.418783C2.25354 0.621948 1.77225 0.934509 1.37215 1.34401C0.965819 1.74412 0.650206 2.22858 0.450094 2.75994C0.253156 3.26944 0.115679 3.85073 0.0781957 4.70087C0.0375384 5.55736 0.0281372 5.82926 0.0281372 8.00156C0.0281372 10.1739 0.0375384 10.4458 0.0750213 11.2991C0.112504 12.1492 0.250104 12.7337 0.447042 13.2401C0.650206 13.7777 0.965819 14.259 1.37215 14.6591C1.77225 15.0654 2.25672 15.3812 2.78807 15.5812C3.29757 15.7781 3.87886 15.9156 4.72912 15.9531C5.58232 15.9907 5.85434 16 8.02664 16C10.1989 16 10.4708 15.9907 11.3242 15.9531C12.1743 15.9156 12.7588 15.7781 13.2651 15.5812C14.3404 15.1654 15.1905 14.3153 15.6062 13.2401C15.8031 12.7306 15.9407 12.1492 15.9781 11.2991C16.0156 10.4458 16.025 10.1739 16.025 8.00156C16.025 5.82926 16.0218 5.55736 15.9844 4.70404ZM14.5435 11.2366C14.5091 12.018 14.3778 12.4399 14.2685 12.7212C13.9996 13.4183 13.4464 13.9715 12.7494 14.2403C12.4681 14.3497 12.043 14.481 11.2647 14.5153C10.4208 14.5529 10.1677 14.5622 8.03287 14.5622C5.89805 14.5622 5.64178 14.5529 4.80091 14.5153C4.01951 14.481 3.59756 14.3497 3.31625 14.2403C2.96938 14.1121 2.65365 13.909 2.39737 13.6433C2.1317 13.3838 1.92853 13.0713 1.80033 12.7244C1.69094 12.4431 1.55968 12.018 1.52538 11.2397C1.48777 10.3958 1.47849 10.1426 1.47849 8.00779C1.47849 5.87297 1.48777 5.6167 1.52538 4.77596C1.55968 3.99455 1.69094 3.5726 1.80033 3.29129C1.92853 2.9443 2.1317 2.62869 2.40055 2.37229C2.65987 2.10661 2.97243 1.90345 3.31943 1.77537C3.60073 1.66597 4.02586 1.53472 4.80409 1.50029C5.648 1.46281 5.90123 1.45341 8.03592 1.45341C10.1739 1.45341 10.427 1.46281 11.2679 1.50029C12.0493 1.53472 12.4712 1.66597 12.7525 1.77537C13.0994 1.90345 13.4151 2.10661 13.6714 2.37229C13.9371 2.63174 14.1403 2.9443 14.2685 3.29129C14.3778 3.5726 14.5091 3.99761 14.5435 4.77596C14.581 5.61987 14.5904 5.87297 14.5904 8.00779C14.5904 10.1426 14.581 10.3927 14.5435 11.2366Z" fill="#01010B"/>
<path d="M8.02967 3.89163C5.76055 3.89163 3.91949 5.73257 3.91949 8.00181C3.91949 10.2711 5.76055 12.112 8.02967 12.112C10.2989 12.112 12.1398 10.2711 12.1398 8.00181C12.1398 5.73257 10.2989 3.89163 8.02967 3.89163ZM8.02967 10.668C6.55758 10.668 5.3635 9.47402 5.3635 8.00181C5.3635 6.5296 6.55758 5.33564 8.02967 5.33564C9.50188 5.33564 10.6958 6.5296 10.6958 8.00181C10.6958 9.47402 9.50188 10.668 8.02967 10.668Z" fill="#01010B"/>
<path d="M13.262 3.72942C13.262 4.25931 12.8324 4.68896 12.3024 4.68896C11.7725 4.68896 11.3428 4.25931 11.3428 3.72942C11.3428 3.19941 11.7725 2.76988 12.3024 2.76988C12.8324 2.76988 13.262 3.19941 13.262 3.72942Z" fill="#01010B"/>
</g>
<defs>
<clipPath id="clip0_478_10706">
<rect width="16" height="16" fill="white"/>
</clipPath>
</defs>
</svg>
