<svg width="16" height="16" viewBox="0 0 16 16" fill="none" xmlns="http://www.w3.org/2000/svg">
<g clip-path="url(#clip0_478_10702)">
<path d="M15.996 16V15.9993H16V10.1313C16 7.26063 15.382 5.0493 12.026 5.0493C10.4126 5.0493 9.32998 5.93463 8.88797 6.77397H8.84131V5.3173H5.6593V15.9993H8.97264V10.71C8.97264 9.3173 9.23664 7.97063 10.9613 7.97063C12.6606 7.97063 12.686 9.55997 12.686 10.7993V16H15.996Z" fill="#01010B"/>
<path d="M0.263977 5.31835H3.58131V16.0003H0.263977V5.31835Z" fill="#01010B"/>
<path d="M1.92133 0C0.860667 0 0 0.860667 0 1.92133C0 2.982 0.860667 3.86067 1.92133 3.86067C2.982 3.86067 3.84267 2.982 3.84267 1.92133C3.842 0.860667 2.98133 0 1.92133 0V0Z" fill="#01010B"/>
</g>
<defs>
<clipPath id="clip0_478_10702">
<rect width="16" height="16" fill="white"/>
</clipPath>
</defs>
</svg>
