<svg width="344" height="344" viewBox="0 0 344 344" fill="none" xmlns="http://www.w3.org/2000/svg">
<mask id="mask0_610_16798" style="mask-type:alpha" maskUnits="userSpaceOnUse" x="0" y="0" width="344" height="344">
<rect width="344" height="344" fill="#D9D9D9"/>
</mask>
<g mask="url(#mask0_610_16798)">
<path d="M-16.001 136.002C123.269 136.542 236.458 249.743 236.997 389L111.495 389C110.959 318.933 54.0665 262.041 -16.001 261.504L-16.001 136.002Z" stroke="#24DC8E" stroke-opacity="0.29" stroke-width="2"/>
<g filter="url(#filter0_f_610_16798)">
<path d="M-80 103.5C95.9048 103.5 239 246.611 239 422.5L79.5 422.5C79.5 334.548 7.95236 263 -80 263L-80 103.5Z" fill="#24DC8E" fill-opacity="0.12"/>
<path d="M-78.5 105.003C95.3893 105.812 236.688 247.126 237.497 421L80.9931 421C80.1897 333.407 9.09335 262.31 -78.5 261.507L-78.5 105.003Z" stroke="#24DC8E" stroke-width="3"/>
</g>
</g>
<defs>
<filter id="filter0_f_610_16798" x="-152" y="31.5" width="463" height="463" filterUnits="userSpaceOnUse" color-interpolation-filters="sRGB">
<feFlood flood-opacity="0" result="BackgroundImageFix"/>
<feBlend mode="normal" in="SourceGraphic" in2="BackgroundImageFix" result="shape"/>
<feGaussianBlur stdDeviation="36" result="effect1_foregroundBlur_610_16798"/>
</filter>
</defs>
</svg>
