<svg width="74" height="32" viewBox="0 0 74 32" fill="none" xmlns="http://www.w3.org/2000/svg">
<path d="M7.16727 28.2904C8.73032 28.0387 9.75681 26.3408 9.46001 24.4981C9.16322 22.6555 7.65551 21.3658 6.09247 21.6175C4.52943 21.8693 3.50293 23.5672 3.79973 25.4098C4.09653 27.2525 5.60423 28.5422 7.16727 28.2904Z" fill="url(#paint0_linear_463_5565)"/>
<path d="M14.3952 19.5522C15.9717 19.4083 16.5651 17.7544 16.9429 15.9268C17.8507 11.5362 21.8115 8.44646 24.2483 7.99321C24.4619 7.95327 25.622 7.83726 25.8483 7.8455C27.7133 7.9165 29.2741 6.69175 29.3343 5.11011C29.3945 3.52782 27.932 2.1877 26.067 2.11607C24.202 2.04507 23.2207 3.40357 22.5811 4.85146C21.7684 6.69112 21.1503 7.33075 20.6527 7.75802C19.6365 8.63157 16.6811 12.0624 13.7809 12.8212C12.2493 13.2225 11.0632 14.5886 11.2331 16.4466C11.4024 18.3053 12.8186 19.6955 14.3952 19.5516V19.5522Z" fill="url(#paint1_linear_463_5565)"/>
<path d="M4.504 12.5454C3.06372 12.9746 2.10205 14.5264 2.38732 16.2983C2.684 18.1411 4.19211 19.4305 5.75474 19.1788C7.17474 18.95 8.01152 17.5262 8.09266 15.8869C8.13957 14.9493 8.44069 13.2928 9.15512 12.2861C9.53802 11.7467 9.98747 11.2085 10.4914 10.7013C11.4766 9.70987 13.2814 9.15075 14.3121 8.94726C16.018 8.61064 17.3683 7.5019 17.3226 5.9995C17.2745 4.41721 15.7232 3.18042 13.8576 3.23684C12.0896 3.29073 10.6759 4.48821 10.5745 5.96019C10.4509 6.80522 10.2943 7.66609 9.82455 8.34376C9.04862 9.46327 8.24354 10.5524 7.29772 11.2858C6.69232 11.7556 5.23809 12.3267 4.50337 12.5454H4.504Z" fill="url(#paint2_linear_463_5565)"/>
<path d="M14.8478 23.2221C13.4075 23.6512 12.4458 25.2031 12.7311 26.9749C13.0277 28.8177 14.5359 30.1071 16.0985 29.8555C17.5185 29.6266 18.3553 28.2028 18.4364 26.5635C18.4833 25.6259 18.7844 23.9695 19.4989 22.9628C19.8818 22.4233 20.3312 21.8851 20.8352 21.378C21.8203 20.3865 23.6251 19.8274 24.6559 19.6239C26.3618 19.2873 27.712 18.1785 27.6664 16.6761C27.6182 15.0938 26.067 13.8571 24.2013 13.9135C22.4333 13.9674 21.0197 15.1648 20.9182 16.6368C20.7946 17.4819 20.5296 18.2793 20.1683 19.0204C19.7315 19.9161 18.9144 21.1713 17.6415 21.9624C16.9904 22.3669 15.5818 23.0034 14.8471 23.2221H14.8478Z" fill="url(#paint3_linear_463_5565)"/>
<path d="M41.2218 11.9946C40.8459 11.9007 40.3989 11.8532 39.9286 11.8532C39.1995 11.8532 38.4236 11.9705 37.9298 12.1822V22.6921H35.3668V10.6544C36.5897 10.1371 38.4002 9.76123 40.281 9.76123C40.8452 9.76123 41.339 9.78469 41.7156 9.85505L41.2218 11.9946Z" fill="black"/>
<path d="M48.0174 22.9507C44.373 22.9507 42.5397 21.4692 42.5397 18.9772C42.5397 15.4507 46.3014 14.8155 50.1335 14.6038V13.8044C50.1335 12.2056 49.0755 11.6414 47.4532 11.6414C46.2539 11.6414 44.7965 12.0173 43.9502 12.4173L43.2921 10.6538C44.3026 10.2068 46.0193 9.76056 47.7125 9.76056C50.7452 9.76056 52.5792 10.9359 52.5792 14.063V22.0568C51.6625 22.5507 49.8045 22.95 48.0181 22.95L48.0174 22.9507ZM50.1335 16.3204C47.5471 16.4618 44.9606 16.6729 44.9606 18.9303C44.9606 20.2704 45.9952 21.0933 47.9464 21.0933C48.7699 21.0933 49.7335 20.9519 50.1335 20.7643V16.3204Z" fill="black"/>
<path d="M56.6236 7.71489C55.7773 7.71489 55.0952 7.05688 55.0952 6.25686C55.0952 5.45684 55.7773 4.79883 56.6236 4.79883C57.4699 4.79883 58.1514 5.45684 58.1514 6.25686C58.1514 7.05688 57.4699 7.71489 56.6236 7.71489ZM55.3304 22.6921V10.0192H57.9168V22.6921H55.3304Z" fill="black"/>
<path d="M68.215 22.6921V14.2279C68.215 12.7464 67.3218 11.8297 65.5582 11.8297C64.6175 11.8297 63.7483 11.9946 63.2311 12.2057V22.6921H60.6681V10.6544C61.9385 10.1371 63.5601 9.76123 65.5354 9.76123C69.086 9.76123 70.802 11.3131 70.802 13.9933V22.6927H68.2156L68.215 22.6921Z" fill="black"/>
<defs>
<linearGradient id="paint0_linear_463_5565" x1="12.3727" y1="-5.99609" x2="7.6685" y2="19.3665" gradientUnits="userSpaceOnUse">
<stop stop-color="#00E5FF"/>
<stop offset="1" stop-color="#4676E0"/>
</linearGradient>
<linearGradient id="paint1_linear_463_5565" x1="21.8508" y1="2.0251" x2="17.146" y2="27.3876" gradientUnits="userSpaceOnUse">
<stop stop-color="#00E5FF"/>
<stop offset="1" stop-color="#4676E0"/>
</linearGradient>
<linearGradient id="paint2_linear_463_5565" x1="10.288" y1="3.01307" x2="9.32945" y2="19.4457" gradientUnits="userSpaceOnUse">
<stop stop-color="#00E5FF"/>
<stop offset="0.86" stop-color="#4676E0"/>
</linearGradient>
<linearGradient id="paint3_linear_463_5565" x1="20.6317" y1="13.6897" x2="19.6732" y2="30.1224" gradientUnits="userSpaceOnUse">
<stop stop-color="#00E5FF"/>
<stop offset="0.86" stop-color="#4676E0"/>
</linearGradient>
</defs>
</svg>
