<svg width="1280" height="605" viewBox="0 0 1280 605" fill="none" xmlns="http://www.w3.org/2000/svg">
<g clip-path="url(#clip0_459_11821)">
<rect width="1280" height="605" fill="#FDFDFD"/>
<g opacity="0.3">
<g opacity="0.2" filter="url(#filter0_f_459_11821)">
<path d="M887.495 580.633C947.762 575.132 970.445 511.908 984.888 442.044C1019.59 274.206 1171 156.093 1264.15 138.767C1272.32 137.24 1316.66 132.806 1325.31 133.121C1396.61 135.835 1456.27 89.0163 1458.57 28.5548C1460.87 -31.931 1404.97 -83.1598 1333.67 -85.8981C1262.38 -88.6122 1224.87 -36.6807 1200.42 18.6677C1169.35 88.9921 1145.72 113.443 1126.7 129.776C1087.85 163.17 974.879 294.319 864.013 323.326C805.466 338.666 760.126 390.888 766.62 461.915C773.09 532.966 827.227 586.11 887.495 580.609V580.633Z" fill="url(#paint0_linear_459_11821)"/>
</g>
<g opacity="0.2" filter="url(#filter1_f_459_11821)">
<path d="M121.495 263.633C181.762 258.132 204.445 194.908 218.888 125.044C253.589 -42.7944 404.998 -160.907 498.15 -178.233C506.316 -179.76 550.663 -184.194 559.314 -183.879C630.608 -181.165 690.27 -227.984 692.572 -288.445C694.874 -348.931 638.968 -400.16 567.674 -402.898C496.381 -405.612 458.868 -353.681 434.417 -298.332C403.35 -228.008 379.723 -203.557 360.7 -187.224C321.854 -153.83 208.879 -22.681 98.0129 6.32602C39.4658 21.6656 -5.87434 73.8879 0.620125 144.915C7.09036 215.966 61.2271 269.11 121.495 263.609V263.633Z" fill="url(#paint1_linear_459_11821)"/>
</g>
</g>
</g>
<defs>
<filter id="filter0_f_459_11821" x="666" y="-186" width="892.64" height="867" filterUnits="userSpaceOnUse" color-interpolation-filters="sRGB">
<feFlood flood-opacity="0" result="BackgroundImageFix"/>
<feBlend mode="normal" in="SourceGraphic" in2="BackgroundImageFix" result="shape"/>
<feGaussianBlur stdDeviation="50" result="effect1_foregroundBlur_459_11821"/>
</filter>
<filter id="filter1_f_459_11821" x="-100" y="-503" width="892.64" height="867" filterUnits="userSpaceOnUse" color-interpolation-filters="sRGB">
<feFlood flood-opacity="0" result="BackgroundImageFix"/>
<feBlend mode="normal" in="SourceGraphic" in2="BackgroundImageFix" result="shape"/>
<feGaussianBlur stdDeviation="50" result="effect1_foregroundBlur_459_11821"/>
</filter>
<linearGradient id="paint0_linear_459_11821" x1="1172.5" y1="-89.3756" x2="992.649" y2="880.155" gradientUnits="userSpaceOnUse">
<stop stop-color="#00E5FF"/>
<stop offset="1" stop-color="#4676E0"/>
</linearGradient>
<linearGradient id="paint1_linear_459_11821" x1="406.499" y1="-406.376" x2="226.649" y2="563.155" gradientUnits="userSpaceOnUse">
<stop stop-color="#00E5FF"/>
<stop offset="1" stop-color="#4676E0"/>
</linearGradient>
<clipPath id="clip0_459_11821">
<rect width="1280" height="605" fill="white"/>
</clipPath>
</defs>
</svg>