<svg width="360" height="670" viewBox="0 0 360 670" fill="none" xmlns="http://www.w3.org/2000/svg">
<g clip-path="url(#clip0_459_11902)">
<rect width="360" height="670" fill="#FDFDFD"/>
<g opacity="0.3">
<g opacity="0.2" filter="url(#filter0_f_459_11902)">
<path d="M273.243 513.721C293.7 512.207 301.399 494.797 306.301 475.559C318.08 429.342 369.473 396.819 401.092 392.048C403.864 391.627 418.916 390.406 421.853 390.493C446.052 391.24 466.303 378.348 467.084 361.699C467.866 345.044 448.89 330.937 424.69 330.183C400.491 329.436 387.758 343.736 379.459 358.977C368.914 378.341 360.894 385.074 354.437 389.572C341.251 398.767 302.904 434.881 265.273 442.868C245.4 447.092 230.01 461.472 232.215 481.031C234.411 500.596 252.787 515.229 273.243 513.715V513.721Z" fill="url(#paint0_linear_459_11902)"/>
</g>
<g opacity="0.2" filter="url(#filter1_f_459_11902)">
<path d="M13.2391 72.4012C33.6958 70.8865 41.3948 53.4769 46.2972 34.2389C58.076 -11.9776 109.469 -44.5014 141.087 -49.2725C143.859 -49.6929 158.912 -50.914 161.848 -50.8273C186.048 -50.0799 206.299 -62.972 207.08 -79.6209C207.862 -96.2764 188.886 -110.383 164.686 -111.137C140.487 -111.884 127.754 -97.5843 119.454 -82.3434C108.909 -62.9786 100.89 -56.2457 94.4326 -51.7481C81.2472 -42.5529 42.9001 -6.43914 5.26861 1.54833C-14.6041 5.77227 -29.9939 20.1524 -27.7895 39.7107C-25.5933 59.2756 -7.21764 73.9093 13.2391 72.3945V72.4012Z" fill="url(#paint1_linear_459_11902)"/>
</g>
</g>
</g>
<defs>
<filter id="filter0_f_459_11902" x="198.061" y="296.212" width="302.99" height="251.554" filterUnits="userSpaceOnUse" color-interpolation-filters="sRGB">
<feFlood flood-opacity="0" result="BackgroundImageFix"/>
<feBlend mode="normal" in="SourceGraphic" in2="BackgroundImageFix" result="shape"/>
<feGaussianBlur stdDeviation="16.9715" result="effect1_foregroundBlur_459_11902"/>
</filter>
<filter id="filter1_f_459_11902" x="-61.9431" y="-145.108" width="302.99" height="251.553" filterUnits="userSpaceOnUse" color-interpolation-filters="sRGB">
<feFlood flood-opacity="0" result="BackgroundImageFix"/>
<feBlend mode="normal" in="SourceGraphic" in2="BackgroundImageFix" result="shape"/>
<feGaussianBlur stdDeviation="16.9715" result="effect1_foregroundBlur_459_11902"/>
</filter>
<linearGradient id="paint0_linear_459_11902" x1="369.982" y1="329.226" x2="329.344" y2="599.27" gradientUnits="userSpaceOnUse">
<stop stop-color="#00E5FF"/>
<stop offset="1" stop-color="#4676E0"/>
</linearGradient>
<linearGradient id="paint1_linear_459_11902" x1="109.978" y1="-112.095" x2="69.3398" y2="157.95" gradientUnits="userSpaceOnUse">
<stop stop-color="#00E5FF"/>
<stop offset="1" stop-color="#4676E0"/>
</linearGradient>
<clipPath id="clip0_459_11902">
<rect width="360" height="670" fill="white"/>
</clipPath>
</defs>
</svg>