<svg width="352" height="48" viewBox="0 0 352 48" fill="none" xmlns="http://www.w3.org/2000/svg">
<g clip-path="url(#clip0_407_21047)">
<path d="M54.6079 37.1839V12.1833H45.0526V6.8287H69.8871V12.1821H60.333V37.1826H54.6091L54.6079 37.1839Z" fill="#2236AA"/>
<path d="M82.8102 14.4178V19.7712C82.1786 19.5734 81.4427 19.5071 80.6112 19.5698C79.776 19.6336 79.0229 19.8277 78.3484 20.1496C77.6726 20.4604 77.1084 20.8694 76.6436 21.3853C76.1788 21.8976 75.8317 22.5007 75.5901 23.1972C75.3521 23.8937 75.2319 24.6775 75.2319 25.5472V37.1814H69.4651V14.4178H74.5157V18.0846C74.7033 17.7468 74.9131 17.425 75.1473 17.1166C75.6391 16.4705 76.2401 15.9349 76.9563 15.5123C77.5046 15.1745 78.0994 14.9129 78.7482 14.7225C79.3933 14.5345 80.058 14.4141 80.7473 14.3638C81.4329 14.3134 82.1209 14.3331 82.8102 14.4178Z" fill="#2236AA"/>
<path d="M103.646 20.4444C103.559 19.6041 103.296 18.7602 102.844 17.9163C102.046 16.3992 100.865 15.3318 99.3109 14.7126C97.7533 14.096 95.9713 13.7852 93.966 13.7852C91.2286 13.7852 89.0688 14.3748 87.4806 15.5565C85.896 16.7383 84.8167 18.2689 84.2415 20.1508L89.4196 21.7944C89.7838 20.7564 90.4228 20.0329 91.3353 19.625C92.2441 19.216 93.1198 19.0121 93.966 19.0121C95.4807 19.0121 96.56 19.3302 97.2051 19.9628C97.7129 20.4579 98.0207 21.1753 98.1311 22.1126C97.1622 22.26 96.2424 22.3975 95.3728 22.5241C93.8986 22.7415 92.5814 22.97 91.4187 23.2071C90.2523 23.4478 89.2491 23.7193 88.4065 24.0313C87.1862 24.4797 86.2136 25.0386 85.4912 25.7056C84.7689 26.3751 84.2476 27.1453 83.9238 28.0163C83.6025 28.8872 83.4394 29.8515 83.4394 30.9018C83.4394 32.1671 83.7301 33.323 84.3151 34.3708C84.8964 35.4187 85.7525 36.2527 86.8821 36.878C88.0116 37.5045 89.3889 37.8153 91.0177 37.8153C92.9837 37.8153 94.605 37.4738 95.8879 36.7945C96.9046 36.2552 97.86 35.4555 98.7627 34.3868V37.1826H103.77V23.2709C103.77 22.2329 103.73 21.2883 103.646 20.4456V20.4444ZM98.0133 28.1084C97.9667 28.9327 97.7926 29.6525 97.4982 30.2716C97.3449 30.5935 97.053 30.9952 96.6262 31.4706C96.1982 31.9496 95.623 32.3747 94.8982 32.7456C94.1758 33.1179 93.2903 33.3046 92.2367 33.3046C91.5781 33.3046 91.0103 33.2075 90.532 33.0098C90.0573 32.812 89.6857 32.5282 89.4294 32.156C89.1682 31.7838 89.0382 31.3354 89.0382 30.817C89.0382 30.4387 89.1179 30.0935 89.2822 29.7864C89.4429 29.4756 89.6931 29.1906 90.0377 28.9327C90.3823 28.671 90.8337 28.4303 91.3954 28.203C91.8872 28.0224 92.4551 27.8554 93.1002 27.6969C93.7453 27.5433 94.594 27.3726 95.6475 27.181C96.3257 27.0569 97.1352 26.9169 98.0784 26.7596C98.0649 27.1576 98.0452 27.6072 98.0146 28.1084H98.0133Z" fill="#2236AA"/>
<path d="M122.205 6.82748V15.1512C120.791 14.2409 119.08 13.7852 117.07 13.7852C114.897 13.7852 113.002 14.3036 111.39 15.3453C109.776 16.3869 108.522 17.8094 107.632 19.614C106.74 21.4185 106.296 23.481 106.296 25.8015C106.296 28.1219 106.733 30.1205 107.609 31.9349C108.485 33.7468 109.711 35.1791 111.282 36.2343C112.853 37.2895 114.686 37.814 116.774 37.814C119.035 37.814 120.92 37.2883 122.437 36.2343C122.601 36.1201 122.761 35.9997 122.918 35.8756V37.1814H127.968V6.82748H122.201H122.205ZM122.419 29.424C122.081 30.4657 121.529 31.2728 120.764 31.8514C119.999 32.4275 118.98 32.7149 117.702 32.7149C116.424 32.7149 115.458 32.4041 114.674 31.7875C113.885 31.1684 113.302 30.3343 112.925 29.2901C112.547 28.2423 112.357 27.0765 112.357 25.8015C112.357 24.5264 112.554 23.3803 112.945 22.3324C113.34 21.2846 113.945 20.4505 114.767 19.8253C115.59 19.1988 116.636 18.888 117.913 18.888C119.106 18.888 120.069 19.1754 120.807 19.7516C121.543 20.3277 122.08 21.1347 122.419 22.1752C122.753 23.2169 122.92 24.422 122.92 25.8015C122.92 27.181 122.753 28.386 122.419 29.424Z" fill="#2236AA"/>
<path d="M132.603 11.2547V6.19608H138.327V11.2547H132.603ZM132.603 37.1826V14.4178H138.327V37.1839H132.603V37.1826Z" fill="#2236AA"/>
<path d="M164.258 24.4084V37.1814H158.448V26.4341C158.448 25.912 158.417 25.2487 158.365 24.4416C158.308 23.6308 158.134 22.8213 157.836 22.0044C157.542 21.1912 157.063 20.5082 156.395 19.9616C155.73 19.4125 154.787 19.1386 153.563 19.1386C153.071 19.1386 152.546 19.2159 151.986 19.3732C151.424 19.5267 150.899 19.8252 150.409 20.2675C149.917 20.7097 149.513 21.3595 149.198 22.2157C148.884 23.0731 148.724 24.2106 148.724 25.6307V37.1814H142.918V14.4178H148.009V16.7677C148.533 16.1756 149.142 15.6523 149.83 15.1978C151.294 14.2274 153.142 13.7409 155.376 13.7409C157.158 13.7409 158.609 14.0456 159.731 14.6487C160.854 15.2543 161.726 16.0221 162.352 16.9458C162.977 17.8733 163.421 18.8413 163.689 19.8449C163.952 20.8497 164.117 21.7661 164.17 22.5965C164.226 23.4232 164.257 24.0301 164.257 24.4084H164.258Z" fill="#2236AA"/>
<path d="M183.409 14.4178V15.6732C183.279 15.5664 183.145 15.462 183.008 15.3649C181.537 14.3097 179.719 13.7852 177.559 13.7852C175.399 13.7852 173.487 14.3036 171.875 15.3453C170.261 16.387 169.007 17.8094 168.118 19.614C167.225 21.4185 166.781 23.481 166.781 25.8015C166.781 28.1219 167.219 30.1205 168.098 31.9349C168.974 33.7468 170.198 35.1791 171.769 36.2343C173.34 37.2895 175.172 37.814 177.261 37.814C179.349 37.814 181.218 37.3387 182.693 36.3879V38.658C182.72 39.5019 182.505 40.2082 182.051 40.777C181.594 41.3457 180.988 41.7744 180.23 42.0631C179.474 42.3506 178.665 42.4955 177.81 42.4955C177.012 42.4955 176.269 42.3186 175.59 41.9661C174.908 41.6184 174.387 41.1025 174.023 40.4293L168.717 43.0004C169.292 43.9843 170.041 44.8455 170.96 45.5813C171.88 46.3208 172.923 46.8969 174.085 47.3084C175.249 47.7236 176.476 47.9312 177.77 47.9312C179.438 47.9312 180.989 47.7101 182.419 47.2679C183.85 46.8256 185.06 46.1525 186.049 45.2557C187.039 44.3553 187.714 43.2104 188.082 41.8174C188.206 41.3248 188.295 40.8335 188.343 40.3347C188.393 39.836 188.417 39.3041 188.417 38.7415V14.4178H183.409ZM181.253 31.8514C180.488 32.4275 179.465 32.7149 178.19 32.7149C176.916 32.7149 175.944 32.4041 175.159 31.7875C174.372 31.1684 173.791 30.3343 173.41 29.2901C173.032 28.2423 172.842 27.0765 172.842 25.8015C172.842 24.5264 173.039 23.3803 173.433 22.3324C173.824 21.2846 174.433 20.4505 175.252 19.8253C176.075 19.1988 177.121 18.888 178.398 18.888C179.591 18.888 180.557 19.1754 181.292 19.7516C182.028 20.3277 182.565 21.1347 182.904 22.1752C183.238 23.2169 183.409 24.422 183.409 25.8015C183.409 27.181 183.238 28.386 182.904 29.424C182.566 30.4657 182.014 31.2728 181.253 31.8514Z" fill="#2236AA"/>
<path d="M25.2085 0H0V12.6243H25.2085V0Z" fill="#2236AA"/>
<path d="M25.2085 44.1846C11.3079 44.1846 0 32.8574 0 18.9359H12.6043C12.6043 25.8973 18.2582 31.5602 25.2085 31.5602V44.1846Z" fill="#24DC8E"/>
<path d="M192.618 37.249V6.89505H198.342V31.8944H211.392V37.249H192.618Z" fill="#24DC8E"/>
<path d="M223.851 37.8816C221.521 37.8816 219.47 37.3792 217.696 36.3744C215.92 35.3695 214.531 33.9863 213.528 32.2224C212.525 30.4596 212.023 28.4389 212.023 26.1614C212.023 23.6739 212.515 21.5106 213.498 19.6693C214.479 17.8291 215.833 16.3992 217.56 15.3797C219.285 14.3613 221.271 13.8515 223.515 13.8515C225.901 13.8515 227.928 14.4141 229.598 15.5381C231.268 16.6621 232.503 18.2431 233.304 20.281C234.103 22.3189 234.384 24.7156 234.145 27.4696H228.484V25.3617C228.484 23.0425 228.114 21.3743 227.379 20.3547C226.643 19.3364 225.438 18.8266 223.769 18.8266C221.819 18.8266 220.384 19.4199 219.465 20.6078C218.547 21.7956 218.088 23.5486 218.088 25.8666C218.088 27.9893 218.547 29.6292 219.465 30.7888C220.384 31.9484 221.736 32.527 223.516 32.527C224.64 32.527 225.6 32.2813 226.4 31.79C227.199 31.2974 227.81 30.5886 228.231 29.6611L233.955 31.306C233.099 33.3857 231.748 35.0022 229.904 36.1545C228.059 37.3067 226.043 37.8829 223.854 37.8829L223.851 37.8816ZM216.317 27.4684V23.2108H231.387V27.4684H216.317Z" fill="#24DC8E"/>
<path d="M243.087 37.8816C241.459 37.8816 240.081 37.5684 238.953 36.9443C237.823 36.3191 236.967 35.4825 236.384 34.4359C235.802 33.3893 235.511 32.2334 235.511 30.9682C235.511 29.9142 235.673 28.9511 235.996 28.0802C236.318 27.2092 236.841 26.439 237.563 25.772C238.285 25.105 239.257 24.546 240.478 24.0964C241.32 23.7869 242.323 23.5142 243.487 23.2746C244.652 23.0363 245.97 22.8078 247.445 22.5892C248.918 22.3718 250.538 22.1285 252.305 21.862L250.243 23.0007C250.243 21.6519 249.921 20.6606 249.276 20.028C248.629 19.3953 247.549 19.0796 246.035 19.0796C245.193 19.0796 244.316 19.2835 243.405 19.6914C242.492 20.0992 241.854 20.8227 241.489 21.862L236.312 20.2171C236.887 18.334 237.968 16.8022 239.552 15.6217C241.138 14.4412 243.299 13.8515 246.035 13.8515C248.041 13.8515 249.824 14.1611 251.38 14.779C252.938 15.3981 254.115 16.4656 254.916 17.9827C255.365 18.8254 255.631 19.6693 255.716 20.512C255.8 21.3546 255.842 22.2968 255.842 23.3373V37.2502H250.833V32.57L251.548 33.5392C250.44 35.071 249.244 36.1778 247.96 36.8584C246.676 37.5401 245.052 37.8804 243.087 37.8804V37.8816ZM244.307 33.3709C245.36 33.3709 246.246 33.1854 246.97 32.812C247.694 32.4398 248.268 32.0148 248.697 31.5369C249.125 31.0591 249.415 30.6586 249.57 30.3355C249.864 29.7176 250.036 28.9966 250.086 28.1748C250.135 27.353 250.16 26.6675 250.16 26.1196L251.844 26.541C250.146 26.8223 248.772 27.0569 247.719 27.2473C246.667 27.4377 245.817 27.6097 245.172 27.7632C244.527 27.918 243.959 28.0863 243.467 28.2693C242.905 28.4941 242.453 28.7374 242.11 28.9966C241.766 29.257 241.513 29.542 241.353 29.8503C241.191 30.1599 241.11 30.5038 241.11 30.8834C241.11 31.403 241.24 31.8501 241.5 32.2224C241.759 32.5946 242.128 32.8796 242.605 33.0761C243.082 33.2726 243.65 33.3709 244.31 33.3709H244.307Z" fill="#24DC8E"/>
<path d="M268.847 37.8816C266.758 37.8816 264.926 37.3546 263.355 36.3007C261.784 35.2467 260.559 33.8131 259.682 32.0012C258.805 30.1881 258.367 28.144 258.367 25.8666C258.367 23.5891 258.813 21.4861 259.704 19.6803C260.595 17.8746 261.847 16.4508 263.461 15.4116C265.074 14.3724 266.967 13.8515 269.143 13.8515C271.319 13.8515 273.122 14.3785 274.593 15.4325C276.068 16.4865 277.182 17.92 277.939 19.7319C278.697 21.545 279.076 23.5891 279.076 25.8666C279.076 28.144 278.693 30.1881 277.928 32.0012C277.163 33.8144 276.025 35.2467 274.509 36.3007C272.993 37.3546 271.107 37.8816 268.847 37.8816ZM269.353 48C268.061 48 266.834 47.7924 265.67 47.3784C264.506 46.9632 263.463 46.3883 262.545 45.6501C261.626 44.913 260.878 44.0519 260.304 43.068L265.607 40.4957C265.971 41.1701 266.495 41.6835 267.175 42.0349C267.855 42.3862 268.595 42.5619 269.394 42.5619C270.251 42.5619 271.058 42.4181 271.814 42.1295C272.572 41.8408 273.178 41.4133 273.636 40.8433C274.091 40.2746 274.305 39.5682 274.277 38.7255V32.1069H274.992V14.4842H280.001V38.8103C280.001 39.3717 279.976 39.9024 279.927 40.4023C279.878 40.901 279.79 41.3961 279.664 41.8887C279.299 43.2805 278.621 44.4253 277.633 45.3245C276.644 46.2237 275.434 46.8944 274.002 47.3367C272.571 47.7801 271.021 48.0012 269.352 48.0012L269.353 48ZM269.773 32.7801C271.049 32.7801 272.071 32.4926 272.836 31.9165C273.6 31.3404 274.151 30.5321 274.488 29.4916C274.824 28.4524 274.992 27.2436 274.992 25.8653C274.992 24.4871 274.824 23.2796 274.488 22.2391C274.151 21.1999 273.613 20.3916 272.878 19.8142C272.142 19.2381 271.176 18.9506 269.983 18.9506C268.706 18.9506 267.658 19.2639 266.837 19.8892C266.017 20.5144 265.41 21.351 265.017 22.3976C264.624 23.4454 264.429 24.6001 264.429 25.8653C264.429 27.1306 264.617 28.3074 264.996 29.354C265.374 30.4019 265.957 31.2335 266.743 31.8526C267.529 32.4717 268.538 32.7801 269.773 32.7801Z" fill="#24DC8E"/>
<path d="M292.673 37.9246C290.891 37.9246 289.438 37.6224 288.316 37.0181C287.193 36.4137 286.319 35.6472 285.695 34.7209C285.07 33.7935 284.626 32.8267 284.358 31.8219C284.091 30.8171 283.93 29.9007 283.875 29.0715C283.819 28.2423 283.791 27.6379 283.791 27.2584V14.4842H289.599V25.2352C289.599 25.7548 289.626 26.4194 289.682 27.2277C289.739 28.0359 289.914 28.8479 290.209 29.6624C290.503 30.478 290.984 31.1598 291.65 31.7077C292.317 32.2555 293.26 32.5295 294.482 32.5295C294.972 32.5295 295.498 32.4521 296.06 32.2973C296.622 32.1425 297.147 31.844 297.638 31.4018C298.13 30.9596 298.534 30.306 298.849 29.4412C299.164 28.5777 299.322 27.4426 299.322 26.0373L302.606 27.5974C302.606 29.397 302.241 31.0824 301.512 32.656C300.782 34.2296 299.684 35.5022 298.219 36.4714C296.752 37.4406 294.903 37.9258 292.673 37.9258V37.9246ZM300.039 37.2502V29.7041H299.322V14.4842H305.089V37.2502H300.039Z" fill="#24DC8E"/>
<path d="M319.863 37.8816C317.533 37.8816 315.482 37.3792 313.707 36.3744C311.932 35.3695 310.543 33.9863 309.54 32.2224C308.537 30.4596 308.035 28.4389 308.035 26.1614C308.035 23.6739 308.527 21.5106 309.509 19.6693C310.49 17.8291 311.844 16.3992 313.571 15.3797C315.297 14.3613 317.283 13.8515 319.527 13.8515C321.912 13.8515 323.94 14.4141 325.61 15.5381C327.279 16.6621 328.514 18.2431 329.315 20.281C330.115 22.3189 330.396 24.7156 330.157 27.4696H324.495V25.3617C324.495 23.0425 324.126 21.3743 323.39 20.3547C322.654 19.3364 321.45 18.8266 319.781 18.8266C317.831 18.8266 316.396 19.4199 315.477 20.6078C314.559 21.7956 314.1 23.5486 314.1 25.8666C314.1 27.9893 314.559 29.6292 315.477 30.7888C316.396 31.9484 317.747 32.527 319.528 32.527C320.652 32.527 321.612 32.2813 322.412 31.79C323.211 31.2974 323.822 30.5886 324.243 29.6611L329.967 31.306C329.11 33.3857 327.76 35.0022 325.916 36.1545C324.071 37.3067 322.055 37.8829 319.866 37.8829L319.863 37.8816ZM312.329 27.4684V23.2108H327.398V27.4684H312.329Z" fill="#24DC8E"/>
<path d="M342.088 37.8816C339.225 37.8816 336.913 37.2318 335.153 35.9321C333.393 34.6325 332.323 32.7948 331.944 30.4203L337.795 29.5358C338.033 30.6033 338.564 31.4399 339.383 32.0442C340.204 32.6486 341.246 32.9508 342.51 32.9508C343.547 32.9508 344.347 32.7506 344.908 32.3501C345.469 31.9496 345.75 31.3907 345.75 30.6746C345.75 30.225 345.638 29.8626 345.414 29.5886C345.188 29.3147 344.686 29.0445 343.909 28.7779C343.13 28.5113 341.921 28.1588 340.279 27.7239C338.427 27.2461 336.945 26.7117 335.838 26.1221C334.729 25.5312 333.929 24.8249 333.439 24.0031C332.947 23.1813 332.703 22.1875 332.703 21.0205C332.703 19.5587 333.074 18.291 333.818 17.2149C334.562 16.14 335.611 15.3109 336.965 14.7274C338.319 14.1439 339.914 13.8528 341.753 13.8528C343.591 13.8528 345.113 14.1267 346.488 14.6746C347.863 15.2224 348.975 16.0025 349.824 17.0147C350.674 18.0269 351.195 19.2209 351.392 20.5979L345.541 21.6519C345.442 20.8092 345.078 20.141 344.447 19.6496C343.816 19.1582 342.96 18.8696 341.879 18.786C340.827 18.716 339.982 18.8561 339.343 19.2074C338.704 19.5587 338.385 20.0648 338.385 20.7245C338.385 21.1188 338.522 21.4492 338.796 21.7158C339.069 21.9823 339.637 22.2563 340.501 22.5376C341.364 22.8189 342.679 23.1837 344.447 23.6333C346.173 24.0829 347.558 24.6075 348.603 25.2045C349.648 25.8015 350.409 26.5189 350.886 27.3542C351.363 28.1907 351.601 29.1992 351.601 30.3797C351.601 32.7125 350.76 34.5465 349.076 35.8805C347.392 37.2158 345.063 37.8829 342.089 37.8829L342.088 37.8816Z" fill="#24DC8E"/>
</g>
<defs>
<clipPath id="clip0_407_21047">
<rect width="351.6" height="48" fill="white"/>
</clipPath>
</defs>
</svg>
