<svg width="330" height="48" viewBox="0 0 330 48" fill="none" xmlns="http://www.w3.org/2000/svg">
<g clip-path="url(#clip0_407_21086)">
<path d="M76.1384 6.9892H51.3217V12.3317H60.8687V37.2734H66.5889V12.3317H76.1384V6.9892Z" fill="#31429B"/>
<path d="M86.99 14.5069C86.3022 14.556 85.6376 14.6749 84.9914 14.865C84.3464 15.0538 83.7505 15.3174 83.2036 15.6534C82.4887 16.074 81.8855 16.6061 81.395 17.2523C81.162 17.5589 80.9536 17.8838 80.7647 18.2235V14.5596H75.7166V37.2734H81.4796V25.6639C81.4796 24.7946 81.5985 24.0123 81.8376 23.3182C82.0767 22.6242 82.4274 22.0222 82.8897 21.5096C83.352 20.9983 83.9197 20.5888 84.5929 20.2798C85.266 19.9573 86.0189 19.7648 86.8527 19.701C87.6865 19.6385 88.4198 19.7047 89.05 19.9009V14.5584C88.3634 14.475 87.6767 14.4579 86.99 14.5069Z" fill="#31429B"/>
<path d="M109.072 18.0518C108.273 16.5375 107.096 15.4707 105.538 14.8539C103.982 14.2359 102.202 13.9282 100.197 13.9282C97.4628 13.9282 95.3035 14.518 93.7205 15.6939C92.1363 16.8722 91.0561 18.4 90.481 20.2798L95.6555 21.9204C96.0196 20.883 96.6572 20.1608 97.5695 19.7537C98.4806 19.3466 99.3573 19.1443 100.198 19.1443C101.713 19.1443 102.792 19.4595 103.437 20.0909C103.942 20.5851 104.242 21.3049 104.353 22.238C103.389 22.3827 102.471 22.5188 101.607 22.6463C100.136 22.8646 98.8178 23.0914 97.6529 23.3293C96.4893 23.5672 95.4875 23.8406 94.6451 24.1496C93.4263 24.5984 92.4551 25.1563 91.7329 25.8209C91.0107 26.4867 90.4883 27.2543 90.1659 28.1236C89.8434 28.993 89.6827 29.9531 89.6827 31.0052C89.6827 32.2669 89.9733 33.4207 90.5558 34.4642C91.137 35.5089 91.9929 36.3427 93.1209 36.9668C94.2503 37.591 95.6273 37.9024 97.2544 37.9024C99.2175 37.9024 100.84 37.5615 102.122 36.8822C103.135 36.3464 104.09 35.5347 104.993 34.4703V37.2722H109.998V23.3906C109.998 22.3532 109.956 21.414 109.872 20.5716C109.788 19.7317 109.521 18.8893 109.072 18.0493V18.0518ZM103.73 30.3749C103.575 30.6986 103.285 31.0983 102.857 31.5741C102.429 32.0511 101.855 32.4741 101.133 32.8456C100.411 33.2184 99.5241 33.4036 98.472 33.4036C97.8123 33.4036 97.2446 33.3055 96.7688 33.1093C96.2918 32.9131 95.924 32.6286 95.6653 32.2571C95.4053 31.8856 95.2753 31.4404 95.2753 30.9218C95.2753 30.5429 95.3563 30.1996 95.5169 29.8906C95.6775 29.5828 95.9301 29.2983 96.2747 29.0384C96.618 28.7796 97.0705 28.5381 97.6308 28.3137C98.1213 28.131 98.689 27.963 99.334 27.8085C99.979 27.654 100.827 27.4823 101.88 27.2935C102.551 27.1721 103.369 27.0299 104.305 26.8729C104.294 27.2751 104.275 27.7116 104.245 28.2181C104.195 29.0384 104.024 29.7581 103.73 30.3737V30.3749Z" fill="#31429B"/>
<path d="M128.421 15.3211C127.005 14.4064 125.302 13.9294 123.29 13.9294C121.116 13.9294 119.224 14.448 117.611 15.4854C115.999 16.524 114.748 17.9427 113.857 19.7451C112.965 21.5464 112.522 23.6039 112.522 25.9177C112.522 28.2315 112.961 30.229 113.836 32.0376C114.713 33.8462 115.935 35.2771 117.506 36.328C119.075 37.3788 120.905 37.9048 122.994 37.9048C125.252 37.9048 127.138 37.3788 128.652 36.328C128.824 36.209 128.973 36.0668 129.135 35.9381V37.2746H134.183V6.9892H128.42V15.3211H128.421ZM128.631 29.535C128.294 30.5723 127.743 31.3791 126.981 31.953C126.217 32.5281 125.197 32.815 123.92 32.815C122.644 32.815 121.677 32.506 120.891 31.8892C120.107 31.2724 119.524 30.4411 119.145 29.3976C118.768 28.3529 118.578 27.1929 118.578 25.9177C118.578 24.6425 118.774 23.5021 119.166 22.4574C119.559 21.4127 120.166 20.5789 120.986 19.9548C121.806 19.3307 122.855 19.0192 124.13 19.0192C125.32 19.0192 126.285 19.3074 127.021 19.8825C127.757 20.4575 128.293 21.2631 128.63 22.3005C128.967 23.3378 129.135 24.5432 129.135 25.9189C129.135 27.2947 128.967 28.4976 128.63 29.5362L128.631 29.535Z" fill="#31429B"/>
<path d="M144.531 6.35773H138.811V11.4059H144.531V6.35773Z" fill="#31429B"/>
<path d="M144.531 14.5596H138.811V37.2734H144.531V14.5596Z" fill="#31429B"/>
<path d="M169.874 19.9757C169.606 18.9739 169.161 18.0089 168.538 17.0831C167.914 16.1574 167.041 15.3934 165.92 14.7914C164.798 14.1893 163.348 13.8865 161.567 13.8865C159.338 13.8865 157.49 14.3696 156.026 15.337C155.336 15.7932 154.734 16.3217 154.207 16.9115V14.5584H149.118V37.2722H154.923V25.7473C154.923 24.3311 155.081 23.1956 155.396 22.3398C155.711 21.4851 156.115 20.8365 156.606 20.3938C157.097 19.9524 157.623 19.6556 158.183 19.4999C158.744 19.3454 159.271 19.2682 159.761 19.2682C160.981 19.2682 161.924 19.5416 162.59 20.0885C163.256 20.6354 163.737 21.3159 164.031 22.1288C164.325 22.9418 164.499 23.7511 164.557 24.5567C164.613 25.3635 164.64 26.0256 164.64 26.5455V37.2709H170.445V24.526C170.445 24.1471 170.417 23.5451 170.36 22.7174C170.304 21.8897 170.142 20.9762 169.877 19.9732L169.874 19.9757Z" fill="#31429B"/>
<path d="M189.581 14.5596V15.8385C189.446 15.7294 189.322 15.608 189.18 15.5062C187.708 14.4542 185.892 13.9294 183.733 13.9294C181.574 13.9294 179.667 14.4468 178.055 15.4854C176.442 16.5228 175.19 17.9427 174.301 19.7439C173.41 21.5452 172.965 23.6027 172.965 25.9165C172.965 28.2303 173.403 30.2278 174.279 32.0364C175.156 33.845 176.378 35.2759 177.949 36.3268C179.52 37.3776 181.348 37.9036 183.438 37.9036C185.527 37.9036 187.388 37.4119 188.865 36.4592V38.746C188.892 39.5872 188.678 40.2922 188.222 40.86C187.766 41.4289 187.16 41.8556 186.404 42.1425C185.646 42.4307 184.84 42.5754 183.986 42.5754C183.186 42.5754 182.446 42.4 181.766 42.0493C181.086 41.6987 180.563 41.1873 180.199 40.5142L174.9 43.0793C175.475 44.0603 176.222 44.9198 177.14 45.6555C178.057 46.3925 179.098 46.9675 180.263 47.3808C181.427 47.794 182.653 48.0024 183.943 48.0024C185.612 48.0024 187.161 47.7817 188.591 47.3403C190.022 46.8989 191.23 46.2282 192.218 45.3306C193.208 44.433 193.883 43.2915 194.249 41.9022C194.375 41.4117 194.462 40.9176 194.511 40.4198C194.56 39.9232 194.585 39.3934 194.585 38.8319V14.5596H189.58H189.581ZM187.424 31.9542C186.66 32.5293 185.64 32.8162 184.365 32.8162C183.089 32.8162 182.122 32.5084 181.337 31.8904C180.551 31.2737 179.97 30.4423 179.591 29.3989C179.212 28.3542 179.023 27.1942 179.023 25.919C179.023 24.6437 179.22 23.5034 179.613 22.4587C180.005 21.414 180.611 20.5802 181.432 19.9561C182.252 19.3319 183.299 19.0193 184.575 19.0193C185.769 19.0193 186.732 19.3074 187.468 19.8813C188.205 20.4563 188.74 21.2632 189.077 22.2993C189.414 23.3366 189.582 24.5432 189.582 25.9177C189.582 27.2923 189.413 28.4964 189.077 29.535C188.74 30.5723 188.19 31.3791 187.425 31.9542H187.424Z" fill="#31429B"/>
<path d="M220.062 23.5095C221.324 21.7083 221.954 19.5379 221.954 16.9998C221.954 15.3027 221.681 13.7639 221.134 12.3832C220.587 11.0025 219.736 9.85604 218.579 8.94376C217.421 8.03271 215.94 7.43801 214.131 7.15599C213.738 7.08733 213.293 7.04073 212.796 7.01866C212.298 6.99904 211.902 6.98801 211.608 6.98801H198.82V37.2722H204.541V27.0091H210.924L215.897 37.2722H222.376L216.906 26.0526C218.23 25.4665 219.284 24.6192 220.062 23.5083V23.5095ZM204.541 12.3317H211.355C211.65 12.3317 211.973 12.3452 212.323 12.3734C212.672 12.4016 212.996 12.458 213.289 12.5426C214.06 12.7523 214.656 13.1066 215.077 13.6045C215.497 14.1023 215.788 14.6553 215.95 15.2659C216.11 15.8766 216.191 16.4553 216.191 17.001C216.191 17.5466 216.11 18.1266 215.95 18.736C215.788 19.3454 215.499 19.8997 215.077 20.3963C214.655 20.8953 214.06 21.2485 213.289 21.4581C212.995 21.5415 212.671 21.5992 212.323 21.6261C211.972 21.6543 211.65 21.669 211.355 21.669H204.541V12.3317Z" fill="#53BEED"/>
<path d="M241.567 15.4634C239.836 14.4395 237.826 13.9282 235.542 13.9282C233.257 13.9282 231.314 14.4334 229.59 15.4425C227.865 16.4529 226.511 17.8581 225.53 19.6594C224.549 21.4618 224.058 23.5476 224.058 25.9178C224.058 28.288 224.539 30.3308 225.5 32.132C226.461 33.9333 227.802 35.3471 229.527 36.3697C231.252 37.3936 233.257 37.9049 235.543 37.9049C237.828 37.9049 239.816 37.3973 241.547 36.3808C243.279 35.3643 244.633 33.9541 245.606 32.1529C246.581 30.3516 247.066 28.2733 247.066 25.9178C247.066 23.5623 246.583 21.5035 245.616 19.7023C244.65 17.901 243.298 16.4872 241.568 15.4634H241.567ZM239.653 30.7011C238.749 31.942 237.378 32.5612 235.542 32.5612C233.705 32.5612 232.411 31.9628 231.493 30.7636C230.574 29.5644 230.115 27.9483 230.115 25.9165C230.115 24.5972 230.307 23.4421 230.693 22.4452C231.08 21.4496 231.671 20.6722 232.47 20.1118C233.27 19.5502 234.292 19.2694 235.542 19.2694C237.35 19.2694 238.714 19.8727 239.632 21.078C240.549 22.2846 241.009 23.8958 241.009 25.9165C241.009 27.9373 240.558 29.4602 239.652 30.7011H239.653Z" fill="#53BEED"/>
<path d="M266.259 15.4634C264.527 14.4395 262.518 13.9282 260.233 13.9282C257.949 13.9282 256.005 14.4334 254.281 15.4425C252.556 16.4529 251.202 17.8581 250.221 19.6594C249.241 21.4618 248.75 23.5476 248.75 25.9178C248.75 28.288 249.231 30.3308 250.192 32.132C251.152 33.9333 252.494 35.3471 254.219 36.3697C255.944 37.3936 257.949 37.9049 260.234 37.9049C262.52 37.9049 264.508 37.3973 266.239 36.3808C267.97 35.3643 269.324 33.9541 270.298 32.1529C271.272 30.3516 271.759 28.2733 271.759 25.9178C271.759 23.5623 271.276 21.5035 270.309 19.7023C269.341 17.901 267.991 16.4872 266.261 15.4634H266.259ZM264.345 30.7011C263.44 31.942 262.069 32.5612 260.233 32.5612C258.398 32.5612 257.103 31.9628 256.184 30.7636C255.266 29.5644 254.806 27.9483 254.806 25.9165C254.806 24.5972 254.999 23.4421 255.385 22.4452C255.771 21.4496 256.362 20.6722 257.162 20.1118C257.961 19.5502 258.984 19.2694 260.233 19.2694C262.042 19.2694 263.405 19.8727 264.324 21.078C265.241 22.2846 265.701 23.8958 265.701 25.9165C265.701 27.9373 265.25 29.4602 264.343 30.7011H264.345Z" fill="#53BEED"/>
<path d="M299.896 14.0128C298.382 14.0128 297.005 14.3451 295.764 15.0121C294.607 15.6338 293.678 16.4933 292.959 17.5736C292.42 16.5939 291.688 15.7785 290.738 15.1495C289.594 14.3917 288.132 14.014 286.353 14.014C284.797 14.014 283.392 14.3573 282.136 15.0452C281.175 15.5713 280.367 16.2432 279.706 17.0562V14.5597H274.659V37.2734H280.421V23.5194C280.421 22.2159 280.783 21.1528 281.505 20.3337C282.226 19.5122 283.184 19.1014 284.375 19.1014C285.567 19.1014 286.601 19.5196 287.31 20.3534C288.017 21.1872 288.372 22.3545 288.372 23.8553V37.2734H294.092V23.5194C294.092 22.65 294.257 21.8824 294.586 21.2166C294.916 20.5508 295.375 20.0321 295.964 19.6593C296.554 19.289 297.247 19.1014 298.046 19.1014C299.294 19.1014 300.273 19.5196 300.98 20.3534C301.688 21.1872 302.042 22.3545 302.042 23.8553V37.2734H307.762V22.341C307.762 19.8592 307.1 17.8507 305.776 16.3156C304.45 14.7804 302.491 14.0128 299.896 14.0128Z" fill="#53BEED"/>
<path d="M329.214 27.4002C328.737 26.5652 327.977 25.8503 326.932 25.2544C325.888 24.6585 324.505 24.1361 322.779 23.6873C321.012 23.2386 319.699 22.8744 318.836 22.5936C317.974 22.3128 317.406 22.0394 317.133 21.7733C316.859 21.5072 316.723 21.1774 316.723 20.785C316.723 20.1265 317.042 19.6213 317.68 19.2706C318.319 18.92 319.162 18.7802 320.214 18.8513C321.294 18.9347 322.149 19.2216 322.781 19.7133C323.411 20.205 323.776 20.8708 323.874 21.7107L329.722 20.6599C329.525 19.2854 329.002 18.0935 328.155 17.0844C327.306 16.0752 326.195 15.2966 324.822 14.7497C323.448 14.2029 321.87 13.9294 320.089 13.9294C318.309 13.9294 316.658 14.22 315.305 14.8025C313.952 15.3849 312.904 16.2126 312.161 17.2842C311.416 18.3571 311.046 19.6226 311.046 21.0805C311.046 22.2441 311.291 23.2361 311.783 24.0564C312.273 24.8767 313.073 25.5818 314.18 26.1691C315.287 26.7589 316.767 27.2923 318.618 27.7681C320.258 28.2034 321.467 28.554 322.246 28.8201C323.025 29.0874 323.525 29.356 323.749 29.6294C323.974 29.9028 324.085 30.2646 324.085 30.7134C324.085 31.427 323.804 31.9849 323.245 32.3846C322.684 32.7831 321.884 32.9842 320.848 32.9842C319.586 32.9842 318.545 32.6814 317.725 32.0805C316.905 31.4773 316.375 30.6422 316.137 29.5779L310.289 30.4608C310.668 32.8297 311.738 34.6629 313.497 35.9602C315.256 37.2562 317.566 37.9049 320.426 37.9049C323.287 37.9049 325.727 37.2403 327.409 35.9074C329.092 34.5758 329.933 32.7464 329.933 30.4178C329.933 29.2395 329.694 28.234 329.218 27.4014L329.214 27.4002Z" fill="#53BEED"/>
<path d="M24.5542 44.2246L11.9798 44.2626L11.9234 25.8846C11.8805 11.6548 23.4237 0.0429163 37.6547 0L37.6927 12.5732C30.3945 12.5953 24.4758 18.5509 24.4978 25.8479L24.5542 44.2258V44.2246Z" fill="#31429B"/>
<path d="M12.5745 0.0380249H0V12.6125H12.5745V0.0380249Z" fill="#53BEED"/>
</g>
<defs>
<clipPath id="clip0_407_21086">
<rect width="329.93" height="48" fill="white"/>
</clipPath>
</defs>
</svg>
